HIERARCHY
ROOT Hips
{
	OFFSET 0.00000 0.00000 0.00000
	CHANNELS 6 Xposition Yposition Zposition Zrotation Yrotation Xrotation 
	JOINT LHipJoint
	{
		OFFSET 0 0 0
		CHANNELS 3 Zrotation Yrotation Xrotation
		JOINT LeftHip
		{
			OFFSET 3.13874 -1.57224 1.49786
			CHANNELS 3 Zrotation Yrotation Xrotation
			JOINT LeftKnee
			{
				OFFSET 2.10955 -5.79594 0.00000
				CHANNELS 3 Zrotation Yrotation Xrotation
				JOINT LeftAnkle
				{
					OFFSET 2.41843 -6.64458 0.00000
					CHANNELS 3 Zrotation Yrotation Xrotation
					JOINT LeftToe
					{
						OFFSET 0.04713 -0.12948 1.66229
						CHANNELS 3 Zrotation Yrotation Xrotation
						End Site
						{
							OFFSET 0.00000 -0.00000 0.85167
						}
					}
				}
			}
		}
	}
	JOINT RHipJoint
	{
		OFFSET 0 0 0
		CHANNELS 3 Zrotation Yrotation Xrotation
		JOINT RightHip
		{
			OFFSET -3.13988 -1.57224 1.49786
			CHANNELS 3 Zrotation Yrotation Xrotation
			JOINT RightKnee
			{
				OFFSET -2.15006 -5.90725 0.00000
				CHANNELS 3 Zrotation Yrotation Xrotation
				JOINT RightAnkle
				{
					OFFSET -2.34496 -6.44273 0.00000
					CHANNELS 3 Zrotation Yrotation Xrotation
					JOINT RightToe
					{
						OFFSET -0.08699 -0.23900 1.55223
						CHANNELS 3 Zrotation Yrotation Xrotation
						End Site
						{
							OFFSET -0.00000 -0.00000 0.80281
						}
					}
				}
			}
		}
	}
	JOINT lowerback
	{
		OFFSET 0 0 0
		CHANNELS 3 Zrotation Yrotation Xrotation
		JOINT Chest
		{
			OFFSET 0.01292 1.96517 -0.16495
			CHANNELS 3 Zrotation Yrotation Xrotation
			JOINT Chest2
			{
				OFFSET 0.02122 1.88666 0.19706
				CHANNELS 3 Zrotation Yrotation Xrotation
				JOINT lowerneck
				{
					OFFSET 0 0 0
					CHANNELS 3 Zrotation Yrotation Xrotation
					JOINT Neck
					{
						OFFSET -0.01683 1.81591 0.07903
						CHANNELS 3 Zrotation Yrotation Xrotation
						JOINT Head
						{
							OFFSET 0.00815 1.74013 -0.47700
							CHANNELS 3 Zrotation Yrotation Xrotation
							End Site
							{
								OFFSET -0.00204 1.83225 -0.16933
							}
						}
					}
				}
				JOINT LeftCollar
				{
					OFFSET 0 0 0
					CHANNELS 3 Zrotation Yrotation Xrotation
					JOINT LeftShoulder
					{
						OFFSET 3.38482 1.41533 0.19802
CHANNELS 3 Zrotation Xrotation Yrotation
						JOINT LeftElbow
						{
OFFSET 0 -4.327120 0.000000
CHANNELS 3 Zrotation Xrotation Yrotation
							JOINT LeftWrist
							{
OFFSET 0 -3.285870 -0.000000
CHANNELS 3 Zrotation Xrotation Yrotation
								JOINT lhand
								{
									OFFSET 0 0 0
CHANNELS 3 Zrotation Xrotation Yrotation
									JOINT LFingers
									{
OFFSET 0 -0.433160 -0.000000
CHANNELS 3 Zrotation Xrotation Yrotation
										End Site
										{
OFFSET 0 -0.349220 -0.000000
										}
									}
								}
								JOINT LThumb
								{
OFFSET 0 0.000000 0.000000
CHANNELS 3 Zrotation Xrotation Yrotation
									End Site
									{
OFFSET 0 -0.354560 0.354560
									}
								}
							}
						}
					}
				}
				JOINT RightCollar
				{
					OFFSET 0 0 0
					CHANNELS 3 Zrotation Yrotation Xrotation
					JOINT RightShoulder
					{
						OFFSET -3.09725 1.62858 -0.14144
CHANNELS 3 Zrotation Xrotation Yrotation
						JOINT RightElbow
						{
OFFSET 0 -4.291040 0.000000
CHANNELS 3 Zrotation Xrotation Yrotation
							JOINT RightWrist
							{
OFFSET 0 -3.227200 -0.000000
CHANNELS 3 Zrotation Xrotation Yrotation
								JOINT rhand
								{
									OFFSET 0 0 0
CHANNELS 3 Zrotation Xrotation Yrotation
									JOINT RFingers
									{
OFFSET 0 -0.543620 -0.000000
CHANNELS 3 Zrotation Xrotation Yrotation
										End Site
										{
OFFSET 0 -0.438280 -0.000000
										}
									}
								}
								JOINT RThumb
								{
OFFSET 0 0.000000 0.000000
CHANNELS 3 Zrotation Xrotation Yrotation
									End Site
									{
OFFSET 0 -0.444970 0.444970
									}
								}
							}
						}
					}
				}
			}
		}
	}
}
MOTION
Frames: 7
Frame Time: 0.008333333333333333
32.219824 15.838429 3.470123 -170.235902 54.898919 -162.831588 0.000000 0.000000 0.000000 -29.065742 -17.635213 -11.796107 0.735899 5.480119 15.283192 2.597974 -5.098190 -29.381787 3.792121 -11.878418 -35.303345 0.000000 0.000000 0.000000 29.312266 -11.544048 -20.676411 -6.326326 -14.736791 46.276819 -0.001742 -5.386017 -7.942300 -7.658058 15.856764 -51.312945 0.896738 5.632200 7.239323 -2.464764 8.062897 -10.641037 -4.922725 3.688426 -15.388525 12.485512 7.223306 -13.701636 -3.886040 11.300371 34.533600 -1.564787 6.776656 15.358729 0.000000 0.000000 0.000000 21.473086 22.609148 -7.948231 15.120949 -24.312885 3.276428 26.836382 8.218730 -19.109811 0.000000 0.000000 0.000000 -7.125000 0.000000 0.000000 -1.444253 51.192387 0.228832 0.000000 0.000000 0.000000 -22.091498 7.584252 60.080970 -29.327609 -40.310033 -10.972014 -27.721149 5.895831 9.811073 0.000000 0.000000 0.000000 7.125000 0.000000 0.000000 -0.648859 41.032438 -0.063445
32.427668 15.872704 3.484494 -170.893723 53.902647 -163.799848 0.000000 0.000000 0.000000 -29.327241 -18.117857 -9.921669 0.669610 5.232136 14.572023 2.636133 -5.243528 -29.585520 3.824160 -11.922463 -35.458593 0.000000 0.000000 0.000000 27.704972 -7.993044 -20.818456 -5.860893 -14.289565 44.415810 0.225065 -10.686964 -11.199714 -8.658950 16.579866 -54.897951 0.556550 5.383304 7.487046 -2.281093 7.682744 -10.531999 -4.487186 3.550533 -15.515698 12.474633 7.099871 -13.536151 -3.795897 11.156193 34.664765 -1.556405 6.748251 15.359246 0.000000 0.000000 0.000000 22.027340 21.271949 -8.818752 16.135875 -25.702585 3.705833 27.461509 6.208200 -16.247208 0.000000 0.000000 0.000000 -7.125000 0.000000 0.000000 -0.299285 48.158956 0.029560 0.000000 0.000000 0.000000 -22.114515 9.360691 57.754692 -29.186956 -40.186226 -10.881224 -27.765421 5.780487 9.998822 0.000000 0.000000 0.000000 7.125000 0.000000 0.000000 -0.674968 41.247207 -0.062482
32.634419 15.907748 3.504168 -171.505195 52.714870 -164.678688 0.000000 0.000000 0.000000 -29.550808 -18.637776 -8.029760 0.591067 4.921149 13.684061 2.648469 -4.617513 -29.756033 4.121044 -12.318648 -36.870345 0.000000 0.000000 0.000000 26.087976 -4.017905 -20.091923 -5.007998 -13.385997 40.843297 -0.037014 -11.080736 -16.225382 -7.094758 15.386310 -49.187451 0.217240 5.145822 7.716822 -2.128031 7.317138 -10.444244 -4.084647 3.419577 -15.645877 12.474308 6.951959 -13.456655 -3.735313 10.955419 34.759688 -1.570068 6.687989 15.359248 0.000000 0.000000 0.000000 22.466906 19.943177 -10.023574 17.289775 -27.236014 4.220235 28.753188 6.183398 -16.682571 0.000000 0.000000 0.000000 -7.125000 0.000000 0.000000 0.906423 48.851636 -0.092750 0.000000 0.000000 0.000000 -22.059227 11.216532 55.702146 -29.004169 -40.024401 -10.763453 -27.633829 5.656869 10.168714 0.000000 0.000000 0.000000 7.125000 0.000000 0.000000 -0.545124 41.424387 -0.048136
32.840683 15.942809 3.525401 -172.064396 51.382277 -165.430870 0.000000 0.000000 0.000000 -29.741942 -19.268103 -6.133641 0.507868 4.566823 12.677416 2.658865 -3.835526 -29.955838 4.455798 -12.742585 -38.413735 0.000000 0.000000 0.000000 24.496890 0.092556 -18.807888 -3.968518 -12.104924 36.123238 -0.640766 -8.712795 -20.672450 -4.681711 12.960841 -39.316132 -0.087460 4.934821 7.884974 -2.007410 6.992747 -10.381041 -3.736176 3.305879 -15.749637 12.440239 6.782573 -13.481061 -3.686241 10.707258 34.828783 -1.588296 6.596245 15.363692 0.000000 0.000000 0.000000 22.701287 18.634322 -11.206036 18.544180 -28.845369 4.810489 30.141903 7.981850 -20.179880 0.000000 0.000000 0.000000 -7.125000 0.000000 0.000000 1.759409 52.998078 -0.353737 0.000000 0.000000 0.000000 -21.952117 13.132128 53.960221 -28.775159 -39.820040 -10.616486 -27.427513 5.553567 10.270811 0.000000 0.000000 0.000000 7.125000 0.000000 0.000000 -0.352965 41.518071 -0.030343
33.046045 15.974910 3.546525 -172.593843 49.936693 -166.034935 0.000000 0.000000 0.000000 -29.900480 -20.023678 -4.354658 0.431456 4.214250 11.680310 2.684436 -3.600068 -30.150823 4.598257 -12.916576 -39.057022 0.000000 0.000000 0.000000 22.828303 4.048979 -17.557912 -2.975888 -10.645602 31.104192 -1.225097 -5.864242 -23.781452 -2.324292 9.431105 -27.212318 -0.334145 4.750842 7.946315 -1.909085 6.717930 -10.348658 -3.442051 3.212645 -15.805554 12.278373 6.587028 -13.586679 -3.630981 10.426808 34.857829 -1.587178 6.469703 15.353546 0.000000 0.000000 0.000000 22.695464 17.401454 -12.402360 19.866874 -30.479377 5.464742 31.344363 9.851651 -23.864773 0.000000 0.000000 0.000000 -7.125000 0.000000 0.000000 2.329053 57.349862 -0.709758 0.000000 0.000000 0.000000 -21.820438 15.077602 52.444170 -28.514813 -39.585761 -10.450131 -27.214193 5.558452 10.310907 0.000000 0.000000 0.000000 7.125000 0.000000 0.000000 -0.159051 41.541394 -0.013568
33.249906 15.999257 3.565891 -173.175496 48.395373 -166.532855 0.000000 0.000000 0.000000 -30.070244 -20.803061 -2.826853 0.367817 3.894265 10.779528 2.706704 -4.082476 -30.190142 4.511315 -12.811147 -38.665947 0.000000 0.000000 0.000000 20.916780 7.894426 -16.335005 -2.075755 -8.999936 25.810853 -1.656464 -3.420023 -25.745523 -0.604056 4.654700 -12.989324 -0.538288 4.591062 7.870865 -1.844981 6.487630 -10.353875 -3.205585 3.139144 -15.804543 11.979322 6.355217 -13.744096 -3.611904 10.127347 34.850236 -1.581140 6.309353 15.327854 0.000000 0.000000 0.000000 22.450439 16.359479 -13.784592 21.244710 -32.109124 6.181215 32.493451 10.759689 -25.898582 0.000000 0.000000 0.000000 -7.125000 0.000000 0.000000 3.176933 59.879598 -1.155967 0.000000 0.000000 0.000000 -21.673761 17.015934 51.139748 -28.254891 -39.349750 -10.284960 -27.003943 5.684598 10.346503 0.000000 0.000000 0.000000 7.125000 0.000000 0.000000 0.031860 41.559873 0.002695
33.453691 16.013138 3.581514 -173.836726 46.802471 -166.998316 0.000000 0.000000 0.000000 -30.269943 -21.439994 -1.556223 0.315732 3.611816 9.987179 2.687554 -4.919405 -29.936818 4.336013 -12.594444 -37.869075 0.000000 0.000000 0.000000 18.694420 11.913988 -14.891544 -1.289282 -7.180205 20.256280 -1.921907 -1.578372 -26.818969 -0.057188 -0.898722 2.481915 -0.721548 4.443267 7.683263 -1.810286 6.280572 -10.379292 -3.007627 3.076654 -15.746760 11.634861 6.109041 -13.891806 -3.687252 9.854928 34.812655 -1.602516 6.142140 15.292006 0.000000 0.000000 0.000000 22.028704 15.571031 -15.347588 22.578496 -33.623300 6.904058 33.536804 10.736075 -26.276682 0.000000 0.000000 0.000000 -7.125000 0.000000 0.000000 4.352617 60.567092 -1.654258 0.000000 0.000000 0.000000 -21.531503 18.871957 50.068838 -28.007328 -39.122943 -10.128316 -26.822764 5.838441 10.395944 0.000000 0.000000 0.000000 7.125000 0.000000 0.000000 0.198009 41.596592 0.016639
